<?xml version="1.0" encoding="UTF-8" standalone="no"?>
<!-- Created with Inkscape (http://www.inkscape.org/) -->

<svg
   width="14.833206mm"
   height="14.833206mm"
   viewBox="0 0 14.833206 14.833206"
   version="1.1"
   id="svg5"
   xml:space="preserve"
   xmlns:inkscape="http://www.inkscape.org/namespaces/inkscape"
   xmlns:sodipodi="http://sodipodi.sourceforge.net/DTD/sodipodi-0.dtd"
   xmlns="http://www.w3.org/2000/svg"
   xmlns:svg="http://www.w3.org/2000/svg"><sodipodi:namedview
     id="namedview7"
     pagecolor="#ffffff"
     bordercolor="#000000"
     borderopacity="0.25"
     inkscape:showpageshadow="2"
     inkscape:pageopacity="0.0"
     inkscape:pagecheckerboard="0"
     inkscape:deskcolor="#d1d1d1"
     inkscape:document-units="mm"
     showgrid="false" /><defs
     id="defs2" /><g
     inkscape:label="Capa 1"
     inkscape:groupmode="layer"
     id="layer1"
     transform="translate(-105.50011,41.579306)"><g
       style="fill:none;stroke:#b8b8b8"
       id="g1465"
       transform="matrix(0.70555556,0,0,0.70555556,92.942847,38.059094)"><g
         style="fill:#b8b8b8;stroke:#b8b8b8"
         id="g2097"
         transform="matrix(0.0234375,0,0,0.0234375,16.309425,-114.3616)"><g
           id="SVGRepo_bgCarrier-6"
           stroke-width="0" /><g
           id="SVGRepo_tracerCarrier-38"
           stroke-linecap="round"
           stroke-linejoin="round" /><g
           id="SVGRepo_iconCarrier-5"><path
             fill="#b8b8b8"
             d="m 512,896 a 384,384 0 1 0 0,-768 384,384 0 0 0 0,768 z m 0,64 a 448,448 0 1 1 0,-896 448,448 0 0 1 0,896 z"
             id="path2078" /><path
             fill="#b8b8b8"
             d="m 480,256 a 32,32 0 0 1 32,32 v 256 a 32,32 0 0 1 -64,0 V 288 a 32,32 0 0 1 32,-32 z"
             id="path2080" /><path
             fill="#b8b8b8"
             d="m 480,512 h 256 q 32,0 32,32 0,32 -32,32 H 480 q -32,0 -32,-32 0,-32 32,-32 z"
             id="path2082" /></g></g></g></g></svg>
