<?xml version="1.0" encoding="UTF-8" standalone="no"?>
<!-- Created with Inkscape (http://www.inkscape.org/) -->

<svg
   width="5.2465286mm"
   height="4.1010437mm"
   viewBox="0 0 5.2465286 4.1010437"
   version="1.1"
   id="svg185"
   xmlns="http://www.w3.org/2000/svg"
   xmlns:svg="http://www.w3.org/2000/svg">
  <defs
     id="defs182" />
  <g
     id="layer1"
     transform="translate(-125.46952,-111.52121)">
    <g
       id="SVGRepo_iconCarrier"
       transform="matrix(0.26458333,0,0,0.26458333,122.43973,108.2)">
      <g
         id="SVGRepo_bgCarrier-3"
         stroke-width="0"
         transform="translate(18.265892,15.680782)" />
      <g
         id="SVGRepo_tracerCarrier-6"
         stroke-linecap="round"
         stroke-linejoin="round"
         transform="translate(18.265892,15.680782)" />
      <g
         id="SVGRepo_bgCarrier-5"
         stroke-width="0"
         transform="translate(-16.240633,13.828201)" />
      <g
         id="SVGRepo_tracerCarrier-3"
         stroke-linecap="round"
         stroke-linejoin="round"
         transform="translate(-16.240633,13.828201)" />
      <g
         id="g489">
        <path
           d="m 21.365881,13.302621 c -3.75739,0 -6.56398,2.4404 -8.23263,4.43934 -1.25216,1.50006 -1.25216,3.62126 0,5.12136 1.66865,1.9989 4.47524,4.4393 8.23263,4.4393 3.7574,0 6.564,-2.4404 8.2326,-4.4393 1.2522,-1.5001 1.2522,-3.6213 0,-5.12136 -1.6686,-1.99894 -4.4752,-4.43934 -8.2326,-4.43934 z"
           stroke="#b8b8b8"
           stroke-width="1.5"
           stroke-linecap="round"
           stroke-linejoin="round"
           id="path458"
           style="fill:none" />
        <path
           d="m 21.365881,23.302621 c 1.6569,0 3,-1.3431 3,-3 0,-1.6569 -1.3431,-3 -3,-3 -1.6569,0 -3,1.3431 -3,3 0,1.6569 1.3431,3 3,3 z"
           stroke="#b8b8b8"
           stroke-width="1.5"
           stroke-linecap="round"
           stroke-linejoin="round"
           id="path460"
           style="fill:none" />
      </g>
    </g>
  </g>
</svg>
