<?xml version="1.0" encoding="UTF-8" standalone="no"?>
<!-- Created with Inkscape (http://www.inkscape.org/) -->

<svg
   width="13.758339mm"
   height="13.758331mm"
   viewBox="0 0 13.758339 13.758331"
   version="1.1"
   id="svg185"
   xml:space="preserve"
   xmlns:inkscape="http://www.inkscape.org/namespaces/inkscape"
   xmlns:sodipodi="http://sodipodi.sourceforge.net/DTD/sodipodi-0.dtd"
   xmlns="http://www.w3.org/2000/svg"
   xmlns:svg="http://www.w3.org/2000/svg"><sodipodi:namedview
     id="namedview187"
     pagecolor="#ffffff"
     bordercolor="#000000"
     borderopacity="0.25"
     inkscape:showpageshadow="2"
     inkscape:pageopacity="0.0"
     inkscape:pagecheckerboard="0"
     inkscape:deskcolor="#d1d1d1"
     inkscape:document-units="mm"
     showgrid="false" /><defs
     id="defs182" /><g
     inkscape:label="Capa 1"
     inkscape:groupmode="layer"
     id="layer1"
     transform="translate(-121.7479,-105.49814)"><g
       id="SVGRepo_iconCarrier"
       transform="matrix(0.26458333,0,0,0.26458333,122.43973,108.2)"><g
         style="fill:none"
         id="g560"
         transform="matrix(2.6666667,0,0,2.6666667,-2.6147873,-10.211747)"><path
           d="m 5.58334,11.35 c 0.4247,0.8031 1.14611,1.4676 2.05554,1.8934 0.90942,0.4257 1.95762,0.5896 2.98662,0.467 1.029,-0.1226 1.9831,-0.5251 2.7185,-1.1468 l 1.406,-1.0685 m 0,2.2549 v -2.4 h -2.5 m 1.6667,-3.2 C 13.492,7.34687 12.7706,6.68238 11.8611,6.25664 10.9517,5.83091 9.9035,5.66699 8.8745,5.78959 7.8455,5.91219 6.8914,6.31467 6.15599,6.93637 L 4.75,8.0049 m 0,-2.2549 v 2.4 h 2.5 m 11.5,1.6 c 0,4.9706 -4.0294,9 -9,9 -4.97056,0 -9,-4.0294 -9,-9 0,-4.97056 4.02944,-9 9,-9 4.9706,0 9,4.02944 9,9 z"
           stroke="#b8b8b8"
           stroke-width="1.5"
           stroke-linecap="round"
           stroke-linejoin="round"
           id="path4" /></g></g></g></svg>
