<?xml version="1.0" encoding="UTF-8" standalone="no"?>
<!-- Uploaded to: SVG Repo, www.svgrepo.com, Transformed by: SVG Repo Mixer Tools -->

<svg
   width="52"
   height="52"
   viewBox="0 0 19.5 19.5"
   fill="none"
   version="1.1"
   id="svg7"
   xmlns="http://www.w3.org/2000/svg"
   xmlns:svg="http://www.w3.org/2000/svg">
  <defs
     id="defs11" />
  <g
     id="SVGRepo_iconCarrier"
     transform="translate(-2.25,-2.25)">
    <path
       d="m 7.83334,13.6 c 0.4247,0.8031 1.14611,1.4676 2.05554,1.8934 0.90942,0.4257 1.95762,0.5896 2.98662,0.467 1.029,-0.1226 1.9831,-0.5251 2.7185,-1.1468 L 17,13.7451 M 17,16 v -2.4 h -2.5 m 1.6667,-3.2 C 15.742,9.59687 15.0206,8.93238 14.1111,8.50664 13.2017,8.08091 12.1535,7.91699 11.1245,8.03959 10.0955,8.16219 9.1414,8.56467 8.40599,9.18637 L 7,10.2549 M 7,8 v 2.4 H 9.5 M 21,12 c 0,4.9706 -4.0294,9 -9,9 -4.97056,0 -9,-4.0294 -9,-9 0,-4.97056 4.02944,-9 9,-9 4.9706,0 9,4.02944 9,9 z"
       stroke="#b8b8b8"
       stroke-width="1.5"
       stroke-linecap="round"
       stroke-linejoin="round"
       id="path4" />
  </g>
</svg>
