<?xml version="1.0" encoding="UTF-8" standalone="no"?>
<!-- Created with Inkscape (http://www.inkscape.org/) -->

<svg
   version="1.1"
   id="svg2"
   width="3838.4407"
   height="1276.8333"
   viewBox="0 0 3838.4407 1276.8333"
   xmlns="http://www.w3.org/2000/svg"
   xmlns:svg="http://www.w3.org/2000/svg">
  <defs
     id="defs6" />
  <g
     id="g8"
     transform="translate(460.22443,4191.5376)">
    <path
       style="fill:#666666"
       d="m -63.224448,-3037.2044 v -122.5 h 18.5 18.5 v 8.5775 8.5776 l 4.97165,-4.3491 c 6.7756,-5.9271 14.4462105,-10.4323 23.1937505,-13.6224 6.68763,-2.4388 8.5695195,-2.6696 21.3345995,-2.6161 12.37402,0.052 14.92913,0.3667 22,2.7102 18.53297,6.1423 33.60796,19.5397 43.00861,38.2223 7.42338,14.753 8.88876,21.8559 8.87127,43 -0.0138,16.6779 -0.21284,18.6469 -2.70966,26.8075 -10.56335,34.5249 -37.40464,55.6925 -70.62008,55.6925 -5.29647,0 -12.31199,-0.6795 -15.5900395,-1.5099 -8.48911005,-2.1507 -20.9625205,-8.5625 -27.9601005,-14.3726 l -6,-4.9818 -0.259,51.4321 -0.259,51.4323 h -18.491 -18.491 z m 96.22629,4.2741 c 3.14945,-1.4529 7.57025,-4.1236 9.824,-5.9348 4.92402,-3.957 12.05787,-14.4476 14.51123,-21.3393 2.23213,-6.2702 3.11239,-25.9368 1.50703,-33.6698 -2.73106,-13.1554 -12.6382,-26.7557 -23.48977,-32.246 -7.4723,-3.7807 -17.48273,-5.2272 -26.1895895,-3.7844 -22.8301405,3.7831 -37.3544605,23.1077 -37.3544605,49.7002 0,15.008 4.43389,27.4749 13.17181,37.0356 9.3371505,10.2163 17.7719205,13.6011 32.79346,13.1596 7.77548,-0.2286 10.53948,-0.7588 15.22629,-2.9211 z m 2257.773758,-4.2741 v -122.5 h 18.5 18.5 v 8.5927 8.5926 l 4.8699,-4.3426 c 6.4908,-5.7881 14.3756,-10.4082 23.2955,-13.6498 6.5754,-2.3896 8.7321,-2.6669 20.8346,-2.6792 15.0556,-0.015 23.101,1.8054 34.3615,7.776 11.8722,6.2948 26.4331,22.3643 32.6113,35.9901 9.5982,21.1684 10.6356,51.735 2.4921,73.4277 -8.0832,21.5318 -25.7583,39.2928 -45.7504,45.9726 -7.4453,2.4876 -9.5723,2.7451 -22.7145,2.7494 -13.5275,0 -15.003,-0.1864 -22,-2.8457 -8.2159,-3.1226 -15.9164,-7.6966 -23.25,-13.8102 l -4.75,-3.9598 v 51.5931 51.5932 h -18.5 -18.5 z m 97,3.8861 c 11.4622,-5.3805 20.9324,-17.3504 24.4688,-30.9277 1.7893,-6.8694 2.0077,-22.0748 0.4261,-29.6592 -5.0699,-24.3117 -26.8803,-40.01 -49.9437,-35.9474 -21.5435,3.7948 -35.2131,20.6537 -36.6586,45.2117 -1.0211,17.3482 3.5886,32.2652 12.9999,42.0679 9.1329,9.5125 18.1664,12.9855 32.7075,12.5744 8.1749,-0.2311 10.4067,-0.6941 16,-3.3197 z m -2788.14371,35.161 c -36.86859,-7.6676 -59.85633,-39.1776 -59.85633,-82.0471 0,-31.4728 11.97998,-56.9782 33.53439,-71.3946 13.66557,-9.1401 27.70621,-12.6795 46.89989,-11.8225 6.63615,0.2963 14.76572,1.2583 18.06572,2.1378 19.25037,5.1307 35.4384,18.3009 43.88047,35.7001 6.11797,12.6092 8.5725,23.1841 9.31435,40.1292 l 0.60197,13.75 h -56.6484 -56.64839 v 3.4109 c 0,4.5408 3.15886,14.4781 6.31335,19.8608 3.49237,5.9593 10.71866,12.3835 17.5115,15.5679 5.14523,2.412 6.74897,2.6553 17.17515,2.6058 9.55261,-0.045 12.29923,-0.4182 16.2197,-2.2015 6.31884,-2.8743 12.72244,-8.9504 20.02427,-19.0005 3.32269,-4.5732 6.33512,-8.1864 6.69428,-8.0292 3.41771,1.4958 29.1849,16.176 29.6155,16.8728 0.92222,1.4922 -9.51436,15.8431 -17.05375,23.4499 -9.26047,9.3433 -16.88274,14.1695 -29,18.3621 -9.42656,3.2616 -10.86015,3.4763 -25,3.7449 -9.94577,0.1889 -17.23858,-0.1807 -21.64367,-1.0968 z m 53.2072,-106.3256 c -2.81877,-9.8285 -10.35401,-18.718 -19.31605,-22.7876 -5.41773,-2.4602 -7.50921,-2.8434 -15.74748,-2.8854 -8.60704,-0.044 -10.11097,0.2424 -16,3.046 -9.51858,4.5317 -17.58213,13.6601 -20.45421,23.1555 l -0.68057,2.25 h 36.49759 36.49758 z m 548.93646,106.2244 c -29.8545,-6.4076 -50.53038,-27.8209 -57.64737,-59.7034 -2.00096,-8.9638 -2.28341,-33.6611 -0.48311,-42.2425 6.76545,-32.2485 25.14629,-53.4103 53.13048,-61.1689 9.12365,-2.5295 34.71324,-2.5097 44,0.034 19.87237,5.4433 35.16414,17.9972 44.01534,36.1348 5.71463,11.7102 8.07442,22.3504 8.70492,39.25 l 0.53165,14.25 H 237.4015 180.77555 v 2.2899 c 0,4.2212 3.03345,13.9929 6.17163,19.8807 3.82261,7.172 10.16058,13.1566 17.65322,16.669 5.11394,2.3973 6.81237,2.6604 17.17515,2.6604 9.72897,0 12.23163,-0.3379 16.25076,-2.1941 6.00524,-2.7735 14.66277,-10.9095 20.54329,-19.3059 2.5038,-3.575 4.87673,-6.8798 5.27317,-7.344 0.85222,-0.9979 30.89061,15.3785 30.91565,16.8547 0.0326,1.9199 -8.97882,14.4118 -15.17325,21.0337 -11.58172,12.3809 -24.30523,19.6541 -40.01746,22.8754 -9.48627,1.9448 -28.79029,1.9582 -37.79216,0.026 z m 54,-104.5529 c 0,-2.696 -6.53483,-14.4278 -9.92481,-17.8178 -9.81817,-9.8182 -28.50144,-12.7726 -41.8023,-6.6102 -8.87241,4.1107 -15.33025,11.2398 -19.73379,21.785 l -1.56594,3.75 h 36.51342 c 26.02913,0 36.51342,-0.3179 36.51342,-1.107 z m 405.00001,104.5529 c -29.5529,-6.3429 -53.3308,-28.5246 -62.1157,-57.9459 -2.8743,-9.6264 -3.6959,-32.048 -1.5456,-42.1781 3.2052,-15.0993 9.4643,-26.8073 20.6613,-38.6479 11.2396,-11.8856 23.567,-19.5449 38.1714,-23.717 10.6708,-3.0483 29.7793,-3.7555 40.8601,-1.5123 33.3263,6.7467 58.0132,30.5599 65.6383,63.3153 2.5489,10.9494 2.2731,29.9262 -0.592,40.74 -6.8366,25.8029 -27.0865,47.9688 -51.6781,56.5677 -14.0529,4.9138 -35.4329,6.3759 -49.3997,3.3782 z m 32.6498,-32.8408 c 23.9691,-6.382 36.9743,-30.7677 32.3215,-60.6051 -3.1262,-20.0477 -18.2042,-35.1061 -38.2213,-38.1717 -33.5313,-5.1352 -58.2589,21.387 -53.7523,57.6532 2.6957,21.6931 13.9369,36.0543 32.0265,40.9154 6.9797,1.8756 20.9673,1.981 27.6256,0.2082 z m 152.3502,32.8188 c -10.766,-2.8274 -19.2952,-7.879 -26.6613,-15.7906 -7.4099,-7.9587 -14.5234,-19.8723 -12.8375,-21.5 0.9055,-0.8742 28.9975,-14.1333 29.9441,-14.1333 0.2206,0 2.5066,3.1671 5.08,7.0381 6.2399,9.3861 12.1323,12.9397 21.4747,12.951 10.9833,0.013 16.8661,-4.54 17.7499,-13.7383 0.5826,-6.0627 -1.9954,-11.6501 -7.4709,-16.1921 -2.0784,-1.7242 -11.1661,-6.7315 -20.1948,-11.1273 -30.5921,-14.8946 -37.7478,-22.6105 -38.845,-41.8858 -0.8418,-14.787 2.6418,-25.4078 11.4948,-35.0456 19.0019,-20.6864 52.1765,-21.5564 71.1826,-1.8667 4.2131,4.3647 11.0834,14.7003 11.0834,16.6738 0,0.9956 -27.8482,16.2013 -29.6421,16.1852 -0.4719,0 -1.8709,-1.7817 -3.1089,-3.9499 -3.6138,-6.3287 -8.6117,-9.5424 -14.8406,-9.5424 -6.1707,0 -9.8088,2.6689 -11.3762,8.3456 -2.1039,7.6195 3.2383,12.6765 23.2069,21.9682 18.5479,8.6307 27.0081,13.5948 33.6514,19.7453 7.4031,6.854 10.7445,13.3821 12.2632,23.9587 3.8096,26.5314 -13.9575,51.5104 -41.2066,57.933 -8.045,1.8963 -23.6762,1.8827 -30.9471,-0.027 z m 575.50004,0.1555 c -28.5826,-6.5681 -47.2954,-24.316 -56.1797,-53.2828 -2.5347,-8.2643 -2.6988,-9.9766 -2.7119,-28.2966 -0.016,-22.8056 1.2654,-29.1906 9.0218,-44.9446 3.8296,-7.7782 6.1692,-10.9735 13.2599,-18.1097 6.9678,-7.0124 10.2311,-9.4538 17.1099,-12.8003 13.1123,-6.3791 19.0803,-7.6269 36.5,-7.6316 12.6829,0 16.2288,0.3509 22.9549,2.2942 21.4263,6.1904 37.1198,20.4462 45.428,41.266 3.778,9.4675 5.9894,21.2369 6.7908,36.1423 l 0.6337,11.7837 h -57.1655 -57.1655 l 0.6344,4.25 c 1.912,12.8079 8.3983,24.4982 17.0173,30.6701 13.9086,9.9597 36.4747,9.3477 49.1012,-1.3317 2.9415,-2.488 13.8121,-16.1596 16.1014,-20.2504 0.838,-1.4974 2.6123,-0.7731 15.1367,6.1792 7.803,4.3315 14.8451,8.3565 15.6491,8.9443 1.2239,0.8949 0.6372,2.2657 -3.6054,8.4244 -13.3473,19.3751 -27.9956,30.6175 -46.5111,35.6969 -8.2421,2.2611 -33.8527,2.8688 -42,0.9966 z m 53.5,-105.1413 c 0,-2.6717 -4.7806,-11.8217 -8.3632,-16.0072 -7.7703,-9.0779 -23.0683,-13.3392 -36.2285,-10.0916 -11.8153,2.9157 -20.6774,10.3795 -25.5203,21.4936 -1.0384,2.3831 -1.888,4.7456 -1.888,5.25 0,0.5391 14.8363,0.9171 36,0.9171 31.9677,0 36,-0.1749 36,-1.5619 z m 653.5,105.082 c -23.6542,-5.2072 -43.7733,-23.3272 -52.9018,-47.645 -4.3785,-11.6641 -5.882,-22.6492 -5.321,-38.8751 0.5157,-14.9128 1.7277,-21.2574 6.1546,-32.2173 8.1963,-20.2921 25.5114,-36.9237 45.1375,-43.3558 8.1192,-2.6609 10.1575,-2.924 22.4307,-2.8947 12.6154,0.03 14.0265,0.2334 21.5348,3.1016 9.3175,3.5594 13.8022,6.2364 22.3126,13.3189 l 6.1526,5.1202 v -9.0364 -9.0365 h 18.5 18.5 v 79.5 79.5 h -18.5 -18.5 v -8 c 0,-4.4 -0.2227,-8 -0.495,-8 -0.2722,0 -3.2577,2.2263 -6.6345,4.9473 -7.5702,6.1002 -18.2722,11.4752 -26.8705,13.4957 -7.865,1.8482 -23.2835,1.8859 -31.5,0.077 z m 39.7467,-34.4339 c 6.6547,-2.5794 15.1401,-9.8813 19.5791,-16.8485 4.4791,-7.0299 7.1608,-16.1509 7.8055,-26.5473 1.7547,-28.2974 -13.4768,-50.2234 -37.4689,-53.937 -30.6538,-4.7447 -54.5231,22.6542 -50.1805,57.6007 1.188,9.5608 2.8886,15.0428 6.6656,21.4877 5.5622,9.4912 15.0379,17.2466 24.2323,19.833 7.0264,1.9765 22.3007,1.1502 29.3669,-1.5886 z m 388.2533,34.5034 c -21.3965,-4.871 -39.2594,-19.3045 -49.8532,-40.2821 -8.8399,-17.5046 -11.5197,-47.438 -6.049,-67.5667 7.0709,-26.0163 25.7583,-46.7051 49.0965,-54.3546 7.9835,-2.6167 10.0662,-2.8826 22.3057,-2.8481 12.3622,0.035 14.1321,0.2778 21,2.8833 8.1974,3.1099 15.9094,7.6856 23.2086,13.7704 l 4.7086,3.9251 0.2914,-8.3084 0.2914,-8.3085 h 18.5 18.5 v 79 79 h -18.5 -18.5 l -0.5,-7.864 -0.5,-7.8639 -1.9646,2.1798 c -3.6874,4.0914 -15.4759,11.166 -23.7622,14.2604 -7.2294,2.6997 -9.7872,3.1307 -20.2732,3.4164 -7.7006,0.2097 -14.1497,-0.1626 -18,-1.0391 z m 35.5685,-33.1987 c 16.5393,-4.8999 28.1912,-19.5862 30.9481,-39.0076 3.059,-21.5499 -3.8951,-41.4087 -18.1836,-51.9273 -7.9753,-5.8711 -14.2869,-7.8328 -25.333,-7.8738 -10.8086,-0.04 -17.2988,1.9148 -24.6188,7.4149 -10.3906,7.8073 -17.0149,19.6349 -19.0053,33.934 -3.6811,26.444 9.2883,51.0171 30.4101,57.6181 5.939,1.8561 19.2591,1.7743 25.7825,-0.1583 z m 292.8267,33.1642 c -24.9978,-5.2056 -48.2161,-23.9423 -58.5085,-47.2154 -7.0127,-15.8569 -8.9449,-40.18 -4.5153,-56.8397 9.7268,-36.5824 42.943,-61.539 81.8364,-61.4869 29.1123,0.039 54.5898,13.4039 71.1378,37.3172 15.6046,22.5498 17.6835,58.7974 4.8354,84.3103 -10.0585,19.9735 -29.5663,35.9578 -51.7715,42.4205 -9.5135,2.7688 -32.9787,3.5839 -43.0143,1.494 z m 32.6447,-33.0974 c 15.2617,-3.9494 26.1112,-15.13 30.9996,-31.9457 2.0882,-7.1829 2.3457,-23.6169 0.4939,-31.512 -5.7409,-24.4755 -27.5846,-39.0308 -52.7834,-35.1717 -23.9336,3.6654 -39.2153,23.0218 -39.2153,49.6717 0,8.6868 2.1204,18.9747 5.3767,26.0874 4.7386,10.3505 16.0652,19.815 27.4811,22.9631 6.4803,1.7871 20.5654,1.7398 27.6474,-0.093 z m 153.105,33.0158 c -9.651,-2.4311 -18.8988,-7.9394 -26.042,-15.5115 -6.6389,-7.0376 -14.1639,-19.0578 -13.3152,-21.2693 0.2665,-0.6946 7.1696,-4.3238 15.3402,-8.0648 14.0227,-6.4205 14.9289,-6.6989 16.1609,-4.9649 0.7178,1.0104 3.1144,4.4323 5.3256,7.6043 5.267,7.5554 11.2201,10.7333 20.1024,10.7311 10.7562,0 16.326,-4.3427 17.4193,-13.5733 0.7357,-6.2124 -1.7308,-11.6993 -7.3571,-16.3664 -2.0784,-1.7242 -11.1661,-6.7315 -20.1948,-11.1273 -31.1688,-15.1754 -37.882,-22.6146 -38.874,-43.0783 -0.7689,-15.8605 3.8514,-27.3286 15.0759,-37.4204 9.2084,-8.2792 20.5427,-12.4327 33.9267,-12.4327 12.9137,0 22.7052,3.9187 32.0403,12.8228 5.3877,5.139 12.7469,15.5219 12.7469,17.9843 0,0.9956 -27.8482,16.2013 -29.6421,16.1852 -0.4719,0 -1.8709,-1.7817 -3.1089,-3.9499 -3.6138,-6.3287 -8.6117,-9.5424 -14.8406,-9.5424 -4.1607,0 -5.7756,0.4964 -7.7988,2.3971 -4.0024,3.76 -5.0925,8.283 -3.0393,12.6099 2.2683,4.7799 6.8351,7.7447 26.4934,17.1992 18.7111,8.999 26.4993,13.9263 32.7767,20.7365 5.3356,5.7885 7.7212,11.0172 9.25,20.2747 4.0388,24.4556 -11.3191,48.8673 -36.0904,57.3664 -8.4078,2.8848 -27.5198,3.6154 -36.3551,1.3897 z m -2049.6328,-3.4508 c -0.786,-1.4688 -0.9204,-86.5422 -0.4797,-303.7813 0.6703,-330.4513 0.274,-310.2424 6.6325,-338.221 12.7944,-56.2983 40.9866,-108.4186 80.7723,-149.3277 7.4595,-7.6702 17.6128,-17.4178 22.5628,-21.6615 49.4878,-42.4262 108.2196,-67.5628 175.5,-75.1122 15.2819,-1.7148 50.8291,-1.4561 66.9645,0.4872 61.0817,7.3566 116.035,30.2429 163.723,68.1854 12.6769,10.0863 38.696,36.1223 48.8631,48.8951 62.8861,79.0023 84.7456,180.4085 59.9538,278.1248 -28.4845,112.2707 -117.5286,201.2502 -229.5044,229.338 -24.8646,6.2369 -43.6855,8.8898 -69,9.7257 -15.6283,0.5161 -56.7406,-0.6432 -83.2188,-2.3465 l -9.7188,-0.6253 -0.2941,103.8983 c -0.2774,97.9841 -0.3994,104.2114 -2.1436,109.3983 -3.4897,10.3773 -7.7375,17.3347 -15.0139,24.5912 -8.1125,8.0901 -18.7092,13.9148 -32.1108,17.6504 -7.9533,2.2169 -8.5095,2.2317 -95.198,2.5255 -86.8953,0.2946 -87.2018,0.2886 -88.2899,-1.7444 z m 349.4879,-480.8317 c 20.6542,-5.7089 39.2785,-18.1323 51.5025,-34.3548 11.3487,-15.0608 17.5853,-31.8891 18.6823,-50.4105 2.6567,-44.856 -26.2601,-84.6472 -70.1848,-96.5784 -11.5786,-3.145 -34.5191,-3.1679 -46.1438,-0.046 -32.9359,8.8453 -57.3452,32.8066 -67.5048,66.266 -2.2046,7.2607 -2.265,8.7134 -2.6086,62.7451 l -0.3518,55.3124 54.3045,-0.3613 c 52.3636,-0.3484 54.5904,-0.4403 62.3045,-2.5725 z m -1651.83345,479.3787 c 1.00838,-1.3366 16.68341,-20.4787 34.83341,-42.5379 18.15,-22.0592 33,-40.5471 33,-41.0843 0,-0.5371 -12.4875,-16.9119 -27.75,-36.3883 -15.2625,-19.4765 -27.75,-35.6787 -27.75,-36.005 0,-0.3263 9.78193,-0.4719 21.73763,-0.3237 l 21.73764,0.2695 17.01236,22.1785 c 9.3568,12.1982 17.27447,22.4353 17.59481,22.7491 0.32034,0.3139 8.60855,-9.779 18.41826,-22.4285 l 17.83582,-22.9991 h 22.33174 c 12.28245,0 22.33173,0.2027 22.33173,0.4505 0,0.2478 -13.06551,16.6681 -29.03449,36.4897 l -29.03449,36.0391 33.28449,42.0682 c 18.30647,23.1375 33.43745,42.501 33.62441,43.0301 0.21278,0.6021 -7.80739,0.861 -21.44258,0.6922 l -21.7825,-0.2698 -22.55742,-28.6842 c -12.40657,-15.7763 -22.83049,-28.9494 -23.16426,-29.2735 -0.33377,-0.3242 -11.29838,12.6962 -24.36579,28.9342 l -23.75893,29.5235 h -22.46762 -22.46762 z m 628.33341,-77.0697 v -79.5 h 18.5 18.5 v 6.584 6.5841 l 4.0449,-3.3341 c 9.62421,-7.9328 12.81487,-9.9394 18.81044,-11.83 11.57881,-3.6511 24.54935,-2.2538 37.80552,4.0728 l 6.30683,3.0099 -8.49152,16.9609 -8.49152,16.9608 -5.65605,-3.192 c -4.77419,-2.6944 -6.91682,-3.2529 -13.74232,-3.582 -7.32893,-0.3534 -8.60076,-0.1251 -13.57941,2.4378 -6.76834,3.4843 -11.18697,9.1239 -14.19682,18.1199 -2.18458,6.5294 -2.25341,8.0318 -2.58652,56.4579 l -0.34222,49.75 h -18.44066 -18.44065 z m 151,17.5226 v -62.0226 h -8 -8 v -17.5 -17.5 h 8 8 v -29.0226 -29.0225 l 18.25,0.2725 18.25,0.2726 0.2653,28.75 0.2654,28.75 h 13.9846 13.9847 v 17.5 17.5 h -13.9924 -13.9923 l -0.2577,61.75 -0.2576,61.75 -18.25,0.2726 -18.25,0.2725 z m 1070.00004,-17.5226 v -79.5 h 18.5 18.5 v 7.0115 7.0115 l 5.7431,-4.6778 c 11.9146,-9.7046 25.131,-13.887 41.2569,-13.056 26.1932,1.3498 43.1987,14.6607 49.6808,38.887 1.4761,5.517 1.7386,13.8197 2.0572,65.0738 l 0.3651,58.75 h -18.5515 -18.5516 l -0.01,-49.75 c 0,-28.6075 -0.438,-52.5123 -1.0205,-56.25 -0.5572,-3.575 -2.2413,-8.9266 -3.7425,-11.8925 -2.2018,-4.3502 -3.7926,-5.9933 -8.2294,-8.5 -5.2158,-2.947 -6.0425,-3.1042 -16,-3.0441 -11.6516,0.07 -15.4056,1.2197 -21.5217,6.5898 -4.3194,3.7925 -6.9186,8.6394 -9.1513,17.0653 -1.4166,5.346 -1.7238,13.6905 -2.0625,56.0315 l -0.3981,49.75 h -18.4332 -18.4332 v -79.5 z m 294.6492,78.2558 c 0.426,-0.6907 23.1791,-28.37 50.5626,-61.5096 27.3835,-33.1396 49.7882,-60.4771 49.7882,-60.75 0,-0.2729 -17.775,-0.4962 -39.5,-0.4962 h -39.5 v -17.5 -17.5 h 76.584 76.5841 l -3.0062,3.75 c -1.6534,2.0625 -24.6014,29.85 -50.9955,61.75 l -47.9894,58 46.9351,0.2598 46.935,0.2598 -0.2735,17.2402 -0.2736,17.2402 -83.3126,0.2558 c -66.6499,0.2046 -83.1577,0 -82.5382,-1 z m 857.3508,-60.7137 v -61.958 l -7.75,-0.292 -7.75,-0.2921 v -17 -17 l 7.75,-0.2921 7.75,-0.292 v -28.958 -28.9579 h 18.5 18.5 v 29 29 h 14 14 v 17.5 17.5 h -14 -14 v 62 62 h -18.5 -18.5 z m -737.728,-204.617 c -49.9136,-6.0474 -96.2704,-24.7013 -137.272,-55.2382 -15.2511,-11.3585 -42.8514,-38.9741 -54.3407,-54.3705 -32.3202,-43.3116 -51.0828,-92.6369 -55.5821,-146.1208 -0.7144,-8.4922 -1.0772,-69.3103 -1.0772,-180.5885 v -167.7841 l 31.6631,-0.6615 c 17.4147,-0.3638 63.683,-0.6615 102.8185,-0.6615 78.7968,0 77.5435,-0.094 85.1322,6.4015 2.2146,1.8956 5.4462,6.1101 7.1814,9.3656 6.5105,12.215 6.1737,2.4061 6.19,180.2993 0.01,111.6606 0.3496,163.3992 1.0986,167.5 3.5119,19.2274 19.4254,34.6885 38.7883,37.6856 22.5634,3.4924 43.6616,-9.7475 51.3944,-32.252 l 2.2335,-6.5 0.5202,-166.5 c 0.4205,-134.5901 0.7745,-167.2666 1.8471,-170.5 2.415,-7.2795 7.435,-15.6029 11.5189,-19.0985 7.5887,-6.4957 6.3354,-6.4015 85.1322,-6.4015 39.1355,0 85.4192,0.298 102.8527,0.6622 l 31.6973,0.6623 -0.3226,175.5877 -0.3227,175.5878 -2.2476,14 c -5.4632,34.0285 -14.4373,61.9481 -28.7069,89.311 -43.2518,82.9377 -124.5159,138.738 -217.9696,149.6699 -15.8828,1.8579 -46.6601,1.8303 -62.227,-0.056 z m 720.728,-13.2894 -10.5,-0.6357 -0.2932,-76.5 c -0.2015,-52.572 0.044,-77.6678 0.7853,-80.2336 0.5931,-2.0536 2.075,-4.3036 3.2932,-5 1.7378,-0.9937 28.2676,-1.3898 123.2147,-1.8396 78.8436,-0.3735 122.2194,-0.9341 124.5,-1.609 12.9582,-3.8347 17.9896,-9.3146 17.9963,-19.5999 0.01,-9.6909 -3.1761,-15.2515 -10.9963,-19.2144 -6.8954,-3.4943 -12.2263,-4.8698 -58.3806,-15.0638 -52.2283,-11.5356 -58.9473,-13.2142 -78.6194,-19.6413 -52.8784,-17.2758 -85.9018,-40.7519 -101.7935,-72.3643 -7.0687,-14.0612 -12.9139,-34.9072 -15.8241,-56.4341 -2.4277,-17.9574 -2.4444,-54.7048 -0.032,-69.5 6.3063,-38.6708 20.7899,-68.3207 45.6493,-93.4501 31.8321,-32.1779 73.1069,-49.2534 139.5,-57.7117 11.2706,-1.4358 28.6041,-1.7081 130.2945,-2.0467 l 117.2946,-0.3906 -0.3484,59.2995 c -0.3131,53.2951 -0.5285,59.9072 -2.1278,65.2996 -4.8662,16.4073 -12.331,26.274 -24.3874,32.2341 l -7.6177,3.7659 -88.5539,0.5643 c -83.1744,0.5299 -88.9173,0.6791 -94.5354,2.4552 -8.1491,2.5762 -14.0908,8.4455 -15.0543,14.8708 -1.6551,11.037 2.179,17.9361 12.7701,22.9789 9.1409,4.3523 11.2956,4.9717 68.2657,19.624 79.3773,20.4153 113.1286,33.5119 138.6694,53.8082 27.2126,21.6248 39.9339,52.8153 43.926,107.6986 3.7033,50.914 -5.3822,93.9332 -26.6109,126 -32.2567,48.7254 -93.8662,75.8054 -185.3088,81.4513 -18.4995,1.1422 -229.0692,2.1594 -245.1757,1.1844 z m -2975.88833,-1.5011 c -0.83953,-1.0115 -1.06562,-71.821 -0.87245,-273.25 l 0.26074,-271.8846 3.05992,-8.5441 c 6.47794,-18.0883 15.96182,-27.726 34.32051,-34.8773 l 6.61957,-2.5786 92.5,-0.2858 92.499992,-0.2859 1.75,2.1466 c 1.6578,2.0336 1.75,17.5748 1.75,294.9645 0,264.8647 -0.15001,292.9678 -1.57143,294.3892 -1.41016,1.4102 -13.25077,1.5714 -115.377542,1.5714 -94.95492,0 -113.99383,-0.2261 -114.93931,-1.3654 z m 323.923462,-0.5688 c -1.43875,-2.6883 -1.4243,-359.2023 0.0152,-375.0658 4.7887,-52.7719 24.72279,-100.4856 58.369838,-139.7124 42.49151,-49.5381 100.70916,-79.8131 166.07979,-86.3667 14.34579,-1.4382 42.26959,-0.6823 57.4992,1.5565 41.55544,6.1089 80.51622,22.4097 114.26916,47.8093 11.36188,8.55 30.97764,26.9398 39.64364,37.1661 l 4.1972,4.9528 5.5981,-6.4528 c 37.7441,-43.5067 88.7007,-72.1146 147.2927,-82.6926 13.0116,-2.3491 17.0661,-2.6245 39.5,-2.6827 26.0539,-0.068 34.9928,0.826 55.5,5.5487 89.1703,20.5358 163.0941,88.9007 183.4214,169.6287 5.8126,23.0842 5.5786,13.5167 5.5786,228.0521 0,177.8032 -0.1535,197.2037 -1.5714,198.6216 -1.4102,1.4102 -13.2508,1.5714 -115.3776,1.5714 -93.5097,0 -114.0031,-0.2373 -114.9106,-1.3307 -0.7951,-0.9581 -1.1795,-53.5463 -1.3724,-187.75 -0.2557,-177.8893 -0.3521,-186.6709 -2.1063,-191.9193 -5.3648,-16.0513 -18.8282,-27.2897 -35.9117,-29.9767 -24.5557,-3.8623 -48.8019,14.0588 -52.7332,38.9767 -0.6729,4.2654 -1.0071,65.3711 -0.9719,177.7446 l 0.053,171.2445 -2.1004,4.7555 c -3.7874,8.5748 -10.7077,14.0138 -21.498,16.8961 -4.0124,1.0718 -24.8881,1.338 -105.6933,1.3475 l -100.69279,0.012 -1.58091,-2.25 c -1.42798,-2.0324 -1.57514,-20.1953 -1.52116,-187.75 0.0651,-202.1486 0.33005,-192.3029 -5.40867,-201.0001 -15.10121,-22.8862 -49.32392,-27.3531 -68.94449,-8.9991 -6.87518,6.4314 -10.15042,12.0487 -11.65696,19.9927 -0.6458,3.4053 -1.00122,71.3651 -1.00122,191.443 0,143.4605 -0.27526,186.4387 -1.2,187.3635 -0.91933,0.9193 -27.92552,1.2 -115.46483,1.2 -111.946808,0 -114.285808,-0.039 -115.299998,-1.9343 z m 2331.079768,0.5726 c -0.8368,-1.0082 -1.0596,-102.0173 -0.8585,-389.25 0.26,-371.4683 0.3484,-388.1424 2.0874,-393.8884 6.3866,-21.103 20.166,-34.7532 40.3005,-39.9225 5.3741,-1.3797 17.4831,-1.5775 96.5951,-1.5775 86.3571,0 90.5255,0.083 92.1056,1.8288 1.5343,1.6954 1.655,31.6697 1.655,411.0657 0,280.1851 -0.3264,409.847 -1.0352,411.1713 -1.0142,1.895 -3.354,1.9342 -115.3775,1.9342 -95.2525,0 -114.5311,-0.2273 -115.4724,-1.3616 z m 916.8851,-460.1934 c -22.9438,-4.9278 -43.0343,-24.6193 -49.028,-48.0545 -3.9051,-15.2687 -1.8561,-32.0801 5.6907,-46.691 5.3164,-10.2927 18.2232,-22.9824 28.3373,-27.8606 11.35,-5.4743 19.8555,-7.1925 32.7262,-6.6109 7.418,0.3352 12.7984,1.1753 17.2738,2.6971 19.4778,6.623 35.1777,22.2919 42.1584,42.0749 1.9757,5.5993 2.292,8.4401 2.2822,20.5 -0.01,12.8016 -0.244,14.6103 -2.7291,21.1296 -4.3414,11.3892 -7.5519,16.3439 -16.1456,24.9173 -16.3916,16.353 -38.012,22.7421 -60.5659,17.8981 z m 31.4025,-14.3262 c 19.7149,-6.9293 33.7713,-25.155 35.3337,-45.8142 2.2612,-29.8982 -22.2371,-56.3046 -52.2362,-56.3046 -32.0913,0 -57.1002,29.7627 -51.5912,61.3979 3.5836,20.5782 20.6727,38.3895 40.8027,42.5271 7.1216,1.4638 20.9544,0.5615 27.691,-1.8062 z m -47.4025,-50.1188 v -37 h 18.8185 c 22.528,0 27.0474,0.9812 33.6169,7.2986 5.192,4.9928 7.027,10.5292 6.2729,18.9263 -0.6649,7.4039 -3.6259,12.1165 -9.8447,15.6682 l -4.9228,2.8115 12.039,14.6477 12.0391,14.6477 h -14.3161 -14.3161 l -7.9434,-11.6832 -7.9433,-11.6833 -0.2817,11.6833 -0.2818,11.6832 h -11.4682 -11.4683 z m 31.4358,-6.4087 c 8.315,-3.4742 4.3058,-13.5913 -5.3861,-13.5913 h -3.0497 v 7.5 c 0,7.3587 0.048,7.5 2.5321,7.5 1.3927,0 4.0493,-0.6339 5.9037,-1.4087 z m -3487.93584,-114.2798 c -22.51342,-2.918 -45.79296,-12.3408 -63.59221,-25.7399 -64.35366,-48.445 -71.14965,-142.1949 -14.43581,-199.1406 26.52748,-26.6359 62.46543,-40.8349 99.02802,-39.1257 84.690412,3.959 143.7981625,83.3048 123.033942,165.1597 -14.92219,58.8251 -68.53369,100.1163 -129.033942,99.3812 -6.6,-0.08 -13.35,-0.3208 -15,-0.5347 z"
       id="path295" />
  </g>
</svg>
